<svg width="100" height="100" xmlns="http://www.w3.org/2000/svg">
  <g fill="#A7C957" fill-opacity="0.2">
    <path d="M10,60 Q15,40 20,60 T30,60 T40,60 T50,60" stroke="#A7C957" stroke-width="1" fill="none"/>
    <path d="M60,70 Q65,50 70,70 T80,70 T90,70" stroke="#A7C957" stroke-width="1" fill="none"/>
    <path d="M30,80 Q35,60 40,80 T50,80 T60,80" stroke="#A7C957" stroke-width="1" fill="none"/>
    <path d="M5,40 L5,50 C10,45 15,48 20,40 L20,30" stroke="#6A994E" stroke-width="1" fill="none"/>
    <path d="M70,30 L70,40 C75,35 80,38 85,30 L85,20" stroke="#6A994E" stroke-width="1" fill="none"/>
    <path d="M40,20 L40,30 C45,25 50,28 55,20 L55,10" stroke="#6A994E" stroke-width="1" fill="none"/>
    <circle cx="15" cy="65" r="2" fill="#F9C74F"/>
    <circle cx="75" cy="75" r="2" fill="#F9C74F"/>
    <circle cx="45" cy="85" r="2" fill="#F9C74F"/>
  </g>
</svg> 